<?xml version="1.0" encoding="utf-8"?>
<!-- Generator: Adobe Illustrator 16.0.4, SVG Export Plug-In . SVG Version: 6.00 Build 0)  -->
<!DOCTYPE svg PUBLIC "-//W3C//DTD SVG 1.1//EN" "http://www.w3.org/Graphics/SVG/1.1/DTD/svg11.dtd">
<svg version="1.1" id="Layer_1" xmlns="http://www.w3.org/2000/svg" xmlns:xlink="http://www.w3.org/1999/xlink" x="0px" y="0px"
	 width="510px" height="120px" viewBox="0 0 510 120" enable-background="new 0 0 510 120" xml:space="preserve">
<g>
	<g>
		<g>
			<g>
				<path fill="#747776" d="M333.67,42.32h2.725v27.743h-2.725V42.32z"/>
				<path fill="#747776" d="M341.561,50.088c0.771-0.215,1.82-0.458,3.127-0.722s2.906-0.401,4.801-0.401
					c1.574,0,2.887,0.23,3.945,0.682c1.051,0.455,1.891,1.102,2.52,1.942c0.627,0.84,1.072,1.846,1.34,3.022
					c0.271,1.173,0.402,2.465,0.402,3.881v11.572h-2.605V59.331c0-1.466-0.1-2.708-0.299-3.719c-0.197-1.018-0.533-1.843-1-2.484
					s-1.08-1.102-1.84-1.382s-1.717-0.42-2.861-0.42c-1.227,0-2.291,0.065-3.182,0.2c-0.896,0.134-1.479,0.255-1.746,0.361v18.176
					h-2.602V50.088z"/>
				<path fill="#747776" d="M364.777,49.366h8.244v2.2h-8.244v11.008c0,1.176,0.1,2.129,0.303,2.863
					c0.201,0.734,0.484,1.301,0.861,1.699c0.371,0.4,0.826,0.668,1.357,0.803c0.535,0.131,1.125,0.199,1.764,0.199
					c1.094,0,1.975-0.128,2.643-0.377c0.668-0.258,1.186-0.488,1.559-0.703l0.641,2.159c-0.373,0.243-1.027,0.517-1.961,0.821
					c-0.932,0.307-1.947,0.459-3.041,0.459c-1.279,0-2.355-0.168-3.223-0.496c-0.867-0.336-1.562-0.844-2.082-1.521
					c-0.521-0.682-0.887-1.531-1.098-2.545c-0.217-1.012-0.324-2.213-0.324-3.602V43.278l2.602-0.476V49.366z"/>
				<path fill="#747776" d="M374.584,59.692c0-1.814,0.262-3.396,0.781-4.743c0.521-1.348,1.201-2.474,2.041-3.383
					c0.846-0.906,1.805-1.578,2.881-2.02c1.08-0.442,2.197-0.663,3.344-0.663c2.537,0,4.555,0.828,6.066,2.484
					c1.506,1.656,2.258,4.201,2.258,7.646c0,0.211-0.006,0.426-0.018,0.641c-0.016,0.211-0.031,0.411-0.061,0.597H377.35
					c0.078,2.537,0.703,4.482,1.879,5.845c1.176,1.36,3.041,2.042,5.604,2.042c1.412,0,2.537-0.134,3.361-0.402
					c0.83-0.268,1.43-0.494,1.805-0.678l0.48,2.24c-0.377,0.215-1.074,0.467-2.105,0.764c-1.027,0.289-2.234,0.436-3.619,0.436
					c-1.814,0-3.367-0.268-4.643-0.797c-1.281-0.535-2.34-1.279-3.164-2.244c-0.826-0.962-1.428-2.098-1.803-3.42
					C374.773,62.714,374.584,61.264,374.584,59.692z M389.277,58.052c-0.061-2.163-0.564-3.846-1.52-5.044
					c-0.965-1.202-2.324-1.802-4.084-1.802c-0.939,0-1.77,0.187-2.504,0.56c-0.732,0.374-1.377,0.875-1.924,1.5
					c-0.547,0.629-0.973,1.357-1.277,2.185c-0.311,0.828-0.49,1.696-0.541,2.602H389.277z"/>
				<path fill="#747776" d="M409.406,67.662c-0.162,0.128-0.398,0.283-0.723,0.457c-0.318,0.175-0.715,0.352-1.182,0.542
					c-0.463,0.184-0.996,0.336-1.6,0.458c-0.598,0.118-1.273,0.18-2.018,0.18c-1.203,0-2.365-0.187-3.486-0.56
					c-1.121-0.377-2.1-0.962-2.939-1.763c-0.842-0.803-1.52-1.832-2.023-3.102c-0.504-1.268-0.762-2.811-0.762-4.622
					c0-1.466,0.229-2.832,0.684-4.083c0.451-1.257,1.1-2.344,1.939-3.262c0.842-0.921,1.867-1.643,3.08-2.163
					c1.217-0.52,2.588-0.781,4.105-0.781c1.922,0,3.463,0.127,4.623,0.38c1.16,0.255,2.115,0.5,2.863,0.744v18.891
					c0,3.096-0.801,5.303-2.402,6.627c-1.598,1.318-4.02,1.979-7.246,1.979c-1.334,0-2.539-0.1-3.623-0.299
					c-1.082-0.201-2.012-0.436-2.781-0.701l0.521-2.361c0.637,0.293,1.514,0.545,2.619,0.756c1.109,0.215,2.223,0.328,3.344,0.328
					c2.455,0,4.234-0.477,5.344-1.424c1.107-0.949,1.662-2.57,1.662-4.863V67.662z M409.367,51.887
					c-0.453-0.134-1.045-0.258-1.762-0.38c-0.719-0.121-1.748-0.181-3.082-0.181c-1.123,0-2.117,0.193-2.982,0.583
					c-0.871,0.386-1.611,0.934-2.223,1.64c-0.613,0.707-1.08,1.547-1.398,2.521c-0.324,0.974-0.48,2.048-0.48,3.221
					c0,1.363,0.186,2.53,0.561,3.504c0.371,0.975,0.859,1.768,1.455,2.381c0.605,0.615,1.289,1.061,2.064,1.342
					c0.775,0.283,1.564,0.42,2.365,0.42c1.17,0,2.246-0.175,3.219-0.52c0.977-0.346,1.729-0.748,2.264-1.202V51.887z"/>
				<path fill="#747776" d="M423.855,48.964c0.857,0,1.662,0.068,2.422,0.199c0.76,0.137,1.285,0.268,1.582,0.401l-0.523,2.241
					c-0.211-0.106-0.646-0.218-1.301-0.339c-0.654-0.118-1.51-0.18-2.58-0.18c-1.123,0-2.02,0.081-2.699,0.24
					c-0.688,0.161-1.133,0.295-1.344,0.401v18.135h-2.602V50.328c0.666-0.296,1.588-0.595,2.764-0.903
					C420.748,49.12,422.172,48.964,423.855,48.964z"/>
				<path fill="#747776" d="M436.162,48.883c1.359,0,2.514,0.196,3.461,0.582c0.949,0.386,1.711,0.918,2.303,1.603
					c0.584,0.678,1.01,1.487,1.279,2.421c0.264,0.934,0.4,1.945,0.4,3.041v13.048c-0.268,0.08-0.656,0.166-1.16,0.262
					c-0.508,0.092-1.1,0.191-1.762,0.299c-0.67,0.107-1.41,0.191-2.225,0.26c-0.816,0.068-1.643,0.1-2.496,0.1
					c-1.096,0-2.104-0.119-3.025-0.359c-0.922-0.238-1.719-0.615-2.402-1.142c-0.68-0.517-1.215-1.186-1.6-1.998
					c-0.389-0.815-0.578-1.812-0.578-2.981c0-1.123,0.207-2.085,0.637-2.882c0.426-0.803,1.027-1.462,1.803-1.982
					c0.771-0.523,1.693-0.903,2.764-1.143c1.062-0.239,2.229-0.361,3.479-0.361c0.377,0,0.77,0.022,1.184,0.059
					c0.41,0.041,0.812,0.093,1.201,0.162c0.385,0.065,0.719,0.134,0.998,0.199c0.279,0.069,0.473,0.128,0.582,0.181v-1.282
					c0-0.722-0.053-1.419-0.158-2.101c-0.109-0.678-0.342-1.295-0.703-1.839c-0.357-0.548-0.869-0.99-1.523-1.323
					c-0.652-0.333-1.514-0.501-2.578-0.501c-1.523,0-2.654,0.106-3.398,0.321c-0.75,0.215-1.299,0.389-1.646,0.52l-0.361-2.281
					c0.453-0.212,1.154-0.414,2.104-0.601C433.686,48.977,434.826,48.883,436.162,48.883z M436.398,68.179
					c1.018,0,1.904-0.034,2.664-0.099c0.758-0.069,1.406-0.153,1.941-0.26v-7.288c-0.295-0.131-0.766-0.274-1.4-0.42
					c-0.641-0.146-1.521-0.221-2.645-0.221c-0.643,0-1.309,0.05-1.998,0.14c-0.697,0.097-1.336,0.295-1.924,0.601
					c-0.586,0.308-1.064,0.728-1.441,1.264c-0.371,0.535-0.559,1.238-0.559,2.122c0,0.771,0.127,1.426,0.379,1.958
					c0.252,0.535,0.615,0.962,1.08,1.282c0.467,0.32,1.027,0.554,1.68,0.699C434.83,68.102,435.574,68.179,436.398,68.179z"/>
				<path fill="#747776" d="M448.303,50.088c0.771-0.215,1.814-0.458,3.117-0.722c1.311-0.265,2.91-0.401,4.809-0.401
					c1.572,0,2.885,0.23,3.939,0.682c1.053,0.455,1.893,1.102,2.521,1.942s1.074,1.846,1.342,3.022
					c0.268,1.173,0.404,2.465,0.404,3.881v11.572h-2.605V59.331c0-1.466-0.102-2.708-0.301-3.719
					c-0.199-1.018-0.533-1.843-1.002-2.484c-0.465-0.641-1.08-1.102-1.84-1.382c-0.764-0.28-1.711-0.42-2.863-0.42
					c-1.227,0-2.285,0.065-3.18,0.2c-0.896,0.134-1.477,0.255-1.74,0.361v18.176h-2.602V50.088z"/>
				<path fill="#747776" d="M485.645,69.421c-0.768,0.265-1.758,0.521-2.959,0.759c-1.195,0.24-2.721,0.365-4.561,0.365
					c-1.523,0-2.906-0.254-4.145-0.744c-1.24-0.496-2.309-1.208-3.199-2.139c-0.896-0.939-1.59-2.069-2.084-3.408
					c-0.496-1.332-0.742-2.838-0.742-4.521c0-1.575,0.209-3.022,0.619-4.341c0.414-1.323,1.025-2.465,1.826-3.423
					c0.799-0.962,1.781-1.708,2.939-2.244c1.164-0.529,2.49-0.8,3.984-0.8c1.359,0,2.541,0.196,3.543,0.582
					c1.002,0.386,1.725,0.753,2.18,1.099V39.476l2.598-0.479V69.421z M483.047,53.128c-0.236-0.187-0.539-0.386-0.9-0.601
					c-0.359-0.215-0.785-0.414-1.26-0.601c-0.479-0.187-1.002-0.339-1.562-0.461c-0.562-0.118-1.148-0.18-1.766-0.18
					c-1.275,0-2.352,0.227-3.217,0.682c-0.867,0.451-1.566,1.061-2.102,1.82c-0.541,0.759-0.92,1.656-1.16,2.686
					c-0.242,1.023-0.365,2.11-0.365,3.258c0,2.72,0.684,4.809,2.045,6.266c1.363,1.455,3.162,2.181,5.404,2.181
					c1.281,0,2.314-0.06,3.1-0.181c0.789-0.121,1.385-0.246,1.783-0.383V53.128z"/>
				<path fill="#747776" d="M508.299,59.732c0,1.627-0.234,3.109-0.701,4.441c-0.467,1.338-1.121,2.471-1.961,3.404
					s-1.836,1.659-2.98,2.178c-1.152,0.523-2.418,0.789-3.807,0.789s-2.654-0.266-3.803-0.789c-1.145-0.519-2.141-1.244-2.979-2.178
					c-0.844-0.934-1.498-2.066-1.963-3.404c-0.467-1.332-0.701-2.814-0.701-4.441c0-1.627,0.234-3.109,0.701-4.444
					c0.465-1.332,1.119-2.474,1.963-3.423c0.838-0.946,1.834-1.68,2.979-2.2c1.148-0.52,2.414-0.781,3.803-0.781
					s2.654,0.262,3.807,0.781c1.145,0.52,2.141,1.254,2.98,2.2c0.84,0.949,1.494,2.091,1.961,3.423
					C508.064,56.624,508.299,58.105,508.299,59.732z M505.539,59.732c0-2.586-0.605-4.649-1.807-6.184
					c-1.201-1.534-2.826-2.303-4.883-2.303c-2.051,0-3.682,0.769-4.883,2.303c-1.203,1.535-1.801,3.598-1.801,6.184
					c0,2.59,0.598,4.644,1.801,6.165c1.201,1.519,2.832,2.281,4.883,2.281c2.057,0,3.682-0.763,4.883-2.281
					C504.934,64.376,505.539,62.322,505.539,59.732z"/>
			</g>
			<g>
				<path fill="#747776" d="M354.164,82.348v2.363h-8.889v25.379h-2.719V84.711h-8.887v-2.363H354.164z"/>
				<path fill="#747776" d="M359.494,88.912c1.357,0,2.514,0.197,3.461,0.582s1.713,0.922,2.303,1.602
					c0.588,0.68,1.01,1.488,1.277,2.422s0.402,1.945,0.402,3.041v13.053c-0.268,0.078-0.654,0.164-1.162,0.258
					c-0.502,0.09-1.094,0.193-1.76,0.299c-0.67,0.105-1.406,0.195-2.227,0.262c-0.811,0.066-1.643,0.102-2.496,0.102
					c-1.094,0-2.102-0.121-3.023-0.363c-0.922-0.24-1.719-0.619-2.402-1.139c-0.678-0.523-1.213-1.189-1.602-2.004
					c-0.385-0.812-0.576-1.809-0.576-2.982c0-1.119,0.211-2.082,0.639-2.883c0.424-0.799,1.027-1.459,1.799-1.979
					c0.771-0.523,1.697-0.902,2.764-1.143c1.064-0.242,2.23-0.363,3.482-0.363c0.373,0,0.766,0.021,1.182,0.062
					c0.412,0.039,0.811,0.096,1.201,0.158c0.389,0.068,0.719,0.139,0.998,0.203s0.473,0.127,0.58,0.18V97
					c0-0.725-0.051-1.422-0.158-2.105c-0.105-0.676-0.342-1.293-0.701-1.838c-0.359-0.547-0.865-0.988-1.52-1.322
					c-0.654-0.332-1.514-0.498-2.584-0.498c-1.518,0-2.654,0.104-3.4,0.318s-1.293,0.389-1.641,0.52l-0.361-2.281
					c0.455-0.213,1.152-0.41,2.102-0.602C357.018,89.006,358.158,88.912,359.494,88.912z M359.73,108.207
					c1.016,0,1.906-0.031,2.666-0.102c0.76-0.066,1.404-0.15,1.938-0.26v-7.285c-0.295-0.131-0.76-0.273-1.398-0.42
					s-1.52-0.221-2.643-0.221c-0.643,0-1.309,0.049-1.998,0.143c-0.699,0.09-1.34,0.293-1.926,0.598
					c-0.586,0.309-1.068,0.729-1.439,1.26c-0.373,0.537-0.559,1.242-0.559,2.123c0,0.775,0.123,1.428,0.381,1.961
					c0.248,0.535,0.609,0.961,1.076,1.281c0.469,0.318,1.027,0.555,1.68,0.701C358.164,108.129,358.904,108.207,359.73,108.207z"/>
				<path fill="#747776" d="M376.832,110.447c-0.883-0.023-1.654-0.139-2.309-0.338c-0.65-0.199-1.199-0.508-1.637-0.922
					c-0.441-0.414-0.775-0.945-1.002-1.604c-0.229-0.648-0.338-1.471-0.338-2.457V79.506l2.602-0.479v26.016
					c0,0.641,0.059,1.156,0.178,1.543c0.119,0.385,0.299,0.693,0.545,0.918c0.238,0.23,0.549,0.395,0.936,0.504
					c0.389,0.107,0.848,0.199,1.383,0.277L376.832,110.447z"/>
				<path fill="#747776" d="M378.34,99.721c0-1.814,0.26-3.396,0.781-4.744c0.52-1.348,1.203-2.477,2.043-3.381
					c0.838-0.91,1.799-1.582,2.881-2.02c1.08-0.445,2.193-0.664,3.342-0.664c2.537,0,4.555,0.83,6.066,2.482
					c1.506,1.656,2.26,4.203,2.26,7.648c0,0.211-0.006,0.426-0.02,0.637c-0.014,0.215-0.035,0.414-0.059,0.602h-14.533
					c0.08,2.535,0.705,4.48,1.881,5.844c1.176,1.361,3.043,2.041,5.604,2.041c1.414,0,2.539-0.133,3.363-0.4
					c0.828-0.268,1.428-0.492,1.803-0.678l0.48,2.24c-0.373,0.215-1.074,0.467-2.102,0.762c-1.031,0.289-2.236,0.441-3.621,0.441
					c-1.816,0-3.365-0.27-4.646-0.805c-1.281-0.529-2.336-1.277-3.158-2.24c-0.83-0.963-1.434-2.102-1.807-3.424
					C378.525,102.742,378.34,101.295,378.34,99.721z M393.029,98.076c-0.057-2.158-0.559-3.84-1.518-5.041
					c-0.965-1.201-2.322-1.799-4.084-1.799c-0.936,0-1.768,0.188-2.502,0.559c-0.736,0.373-1.377,0.873-1.924,1.502
					s-0.973,1.354-1.279,2.182c-0.309,0.824-0.488,1.693-0.541,2.598H393.029z"/>
				<path fill="#747776" d="M399.369,90.117c0.77-0.217,1.811-0.459,3.119-0.727c1.307-0.264,2.906-0.398,4.805-0.398
					c1.574,0,2.889,0.225,3.939,0.68c1.057,0.457,1.896,1.104,2.525,1.945c0.629,0.84,1.074,1.844,1.342,3.018
					c0.264,1.176,0.396,2.473,0.396,3.885v11.57h-2.602v-10.73c0-1.469-0.096-2.707-0.299-3.723
					c-0.199-1.016-0.531-1.842-1.002-2.48c-0.467-0.641-1.08-1.102-1.842-1.381c-0.758-0.279-1.713-0.42-2.863-0.42
					c-1.227,0-2.281,0.068-3.182,0.199c-0.889,0.133-1.471,0.252-1.738,0.357v18.178h-2.6V90.117z"/>
				<path fill="#747776" d="M422.582,89.391h8.246v2.205h-8.246v11.008c0,1.176,0.102,2.127,0.299,2.861
					c0.201,0.734,0.49,1.303,0.863,1.703c0.373,0.398,0.824,0.664,1.363,0.801c0.531,0.131,1.121,0.197,1.762,0.197
					c1.092,0,1.973-0.127,2.639-0.379s1.189-0.488,1.562-0.699l0.641,2.158c-0.373,0.242-1.029,0.518-1.961,0.822
					c-0.938,0.309-1.951,0.463-3.045,0.463c-1.281,0-2.35-0.168-3.219-0.504c-0.869-0.332-1.562-0.84-2.082-1.521
					s-0.889-1.527-1.105-2.539c-0.211-1.016-0.316-2.217-0.316-3.604V83.311l2.6-0.48V89.391z"/>
				<path fill="#747776" d="M451.176,99.762c0,1.627-0.234,3.107-0.701,4.443s-1.121,2.467-1.961,3.398
					c-0.84,0.939-1.836,1.662-2.979,2.184c-1.15,0.521-2.418,0.783-3.807,0.783c-1.387,0-2.654-0.262-3.803-0.783
					c-1.145-0.521-2.143-1.244-2.98-2.184c-0.84-0.932-1.494-2.062-1.961-3.398s-0.703-2.816-0.703-4.443
					c0-1.629,0.236-3.109,0.703-4.445c0.467-1.334,1.121-2.475,1.961-3.42c0.838-0.949,1.836-1.682,2.98-2.203
					c1.148-0.52,2.416-0.781,3.803-0.781c1.389,0,2.656,0.262,3.807,0.781c1.143,0.521,2.139,1.254,2.979,2.203
					c0.84,0.945,1.494,2.086,1.961,3.42C450.941,96.652,451.176,98.133,451.176,99.762z M448.414,99.762
					c0-2.59-0.602-4.654-1.805-6.184c-1.197-1.535-2.826-2.305-4.881-2.305c-2.057,0-3.684,0.77-4.885,2.305
					c-1.203,1.529-1.799,3.594-1.799,6.184c0,2.588,0.596,4.641,1.799,6.16c1.201,1.523,2.828,2.285,4.885,2.285
					c2.055,0,3.684-0.762,4.881-2.285C447.812,104.402,448.414,102.35,448.414,99.762z"/>
			</g>
		</g>
		<g>
			<g>
				<g>
					<path fill="#868985" d="M317.973,105.17c-0.047-1.006-0.117-2.213-0.102-3.119h-0.035c-0.238,0.852-0.537,1.744-0.91,2.74
						l-1.277,3.496h-0.695l-1.166-3.428c-0.344-1.02-0.633-1.949-0.836-2.809h-0.02c-0.021,0.906-0.076,2.113-0.143,3.193
						l-0.191,3.09h-0.889l0.5-7.207h1.193l1.23,3.486c0.301,0.887,0.549,1.674,0.725,2.424h0.037
						c0.186-0.721,0.438-1.516,0.752-2.424l1.289-3.486h1.189l0.445,7.207h-0.91L317.973,105.17z"/>
					<path fill="#868985" d="M320.512,101.227c0.471-0.1,1.141-0.158,1.785-0.158c0.992,0,1.633,0.184,2.086,0.588
						c0.359,0.324,0.562,0.816,0.562,1.373c0,0.951-0.6,1.584-1.355,1.838v0.037c0.555,0.186,0.887,0.699,1.055,1.451
						c0.238,1.006,0.416,1.709,0.562,1.979h-0.963c-0.123-0.199-0.279-0.826-0.482-1.721c-0.217-0.992-0.598-1.369-1.441-1.4h-0.887
						v3.121h-0.922V101.227z M321.434,104.504h0.953c0.992,0,1.629-0.537,1.629-1.373c0-0.924-0.674-1.328-1.662-1.342
						c-0.445,0-0.764,0.041-0.92,0.086V104.504z"/>
				</g>
			</g>
			<path fill="#000A8B" d="M142.019,110.062c-1.131-3.533-2.342-7.152-3.644-10.873c-1.304-3.717-2.597-7.426-3.892-11.107h-39.66
				c-1.285,3.697-2.572,7.416-3.858,11.139c-1.288,3.721-2.486,7.34-3.596,10.842H63.625c3.818-10.943,7.446-21.055,10.878-30.334
				c3.432-9.285,6.785-18.025,10.064-26.233c3.289-8.209,6.522-16.002,9.702-23.375c3.189-7.376,6.495-14.58,9.926-21.617h21.671
				c3.339,7.037,6.626,14.241,9.862,21.617c3.243,7.373,6.506,15.166,9.796,23.375c3.289,8.208,6.652,16.948,10.084,26.233
				c3.435,9.279,7.068,19.391,10.893,30.334H142.019z M114.553,31.508c-0.513,1.476-1.259,3.482-2.24,6.022
				c-0.984,2.537-2.1,5.471-3.355,8.798c-1.253,3.33-2.659,6.99-4.208,10.992c-1.552,4.001-3.125,8.197-4.725,12.589h29.041
				c-1.551-4.408-3.061-8.612-4.515-12.627c-1.457-4.012-2.843-7.678-4.152-11.014c-1.311-3.324-2.46-6.256-3.451-8.792
				C115.959,34.941,115.158,32.949,114.553,31.508z"/>
			<path fill="#000A8B" d="M210.041,110.062l-19.995-0.01c-13.134,0-16.697-13.855-16.697-13.855
				c-0.76-3.004-1.14-6.389-1.14-10.154v-73.27l20.032-4.316v70.163c0,1.797,0.132,3.408,0.399,4.84
				c0.27,1.438,0.727,5.291,4.84,6.801c2.555,0.938,10.188,0.674,12.56,0.674V110.062z"/>
			<path fill="#000A8B" d="M277.127,37.468c5.916,0,10.844,0.672,14.789,2.014c3.943,1.345,7.105,3.271,9.479,5.783
				c2.373,2.511,4.057,5.558,5.041,9.144c0.986,3.585,1.48,7.572,1.48,11.963v41.678c-2.871,0.629-6.857,1.363-11.967,2.213
				c-5.107,0.852-11.293,1.281-18.553,1.281c-4.57,0-8.715-0.408-12.438-1.213c-3.719-0.807-6.922-2.125-9.613-3.969
				c-2.685-1.832-4.747-4.232-6.179-7.188c-1.44-2.961-2.153-6.59-2.153-10.891c0-4.121,0.826-7.615,2.486-10.488
				c1.657-2.865,3.874-5.15,6.656-6.854c2.778-1.704,5.956-2.937,9.54-3.696c3.59-0.766,7.311-1.146,11.162-1.146
				c2.602,0,4.906,0.115,6.926,0.334c2.016,0.23,3.648,0.52,4.904,0.877v-1.883c0-3.402-1.029-6.137-3.092-8.201
				c-2.062-2.057-5.646-3.09-10.754-3.09c-3.408,0-6.768,0.246-10.086,0.738c-3.314,0.495-6.186,1.191-8.601,2.082l-2.557-16.13
				c1.165-0.354,2.626-0.741,4.37-1.139c1.75-0.408,3.65-0.763,5.717-1.077c2.057-0.314,4.23-0.582,6.52-0.809
				C272.49,37.58,274.795,37.468,277.127,37.468z M278.742,96.076c1.971,0,3.852-0.041,5.645-0.131s3.227-0.225,4.303-0.402V80.352
				c-0.807-0.178-2.016-0.355-3.627-0.537c-1.615-0.18-3.094-0.273-4.438-0.273c-1.883,0-3.654,0.119-5.312,0.34
				c-1.658,0.223-3.115,0.65-4.369,1.279c-1.252,0.629-2.24,1.475-2.957,2.551c-0.719,1.078-1.072,2.422-1.072,4.033
				c0,3.139,1.047,5.312,3.156,6.521C272.176,95.477,275.064,96.076,278.742,96.076z"/>
			<g>
				<polygon fill="#FF8300" points="239.639,13.436 239.639,13.361 219.607,13.361 219.607,45.619 229.261,30.102 				"/>
				<polygon fill="#000A8B" points="229.261,42.584 219.607,58.105 219.607,60.277 219.607,110.062 239.639,110.062 239.639,60.277 
					239.639,25.919 				"/>
			</g>
		</g>
	</g>
	<g>
		<polygon fill="#95D600" points="25.358,21.126 29.303,27.456 33.246,33.793 25.358,33.793 17.475,33.793 21.415,27.456 		"/>
		<polygon fill="#0070B8" points="9.585,46.456 5.646,52.792 1.702,59.122 9.585,59.122 17.475,59.122 13.532,52.792 		"/>
		<polygon fill="#EC5F23" points="56.902,46.456 60.843,52.792 64.788,59.122 56.902,59.122 49.016,59.122 52.959,52.792 		"/>
		<polygon fill="#15A3DD" points="17.475,59.122 13.532,52.792 9.585,46.456 17.475,46.456 25.358,46.456 21.415,52.792 		"/>
		<polygon fill="#000A8B" points="33.246,59.122 37.188,52.792 41.126,46.456 33.246,46.456 25.358,46.456 29.303,52.792 		"/>
		<polygon fill="#F1A97F" points="49.016,59.122 45.071,52.792 41.126,46.456 49.016,46.456 56.902,46.456 52.959,52.792 		"/>
		<polygon fill="#C7D92C" points="25.358,46.456 29.303,40.123 33.246,33.793 25.358,33.793 17.475,33.793 21.415,40.123 		"/>
		<polygon fill="#EE8D22" points="41.126,46.456 37.188,40.123 33.246,33.793 41.126,33.793 49.016,33.793 45.071,40.123 		"/>
		<polygon fill="#A8DEEE" points="17.475,33.793 13.532,40.123 9.585,46.456 17.475,46.456 25.358,46.456 21.415,40.123 		"/>
		<polygon fill="#F6CBAB" points="49.016,33.793 45.071,40.123 41.126,46.456 49.016,46.456 56.902,46.456 52.959,40.123 		"/>
		<polygon fill="#FF8300" points="41.126,21.126 37.188,27.456 33.246,33.793 41.126,33.793 49.016,33.793 45.071,27.456 		"/>
		<polygon fill="#F6CD0F" points="33.246,33.793 37.188,27.456 41.126,21.126 33.246,21.126 25.358,21.126 29.303,27.456 		"/>
		<polygon fill="#D3E067" points="33.246,8.457 37.188,14.793 41.126,21.126 33.246,21.126 25.358,21.126 29.303,14.793 		"/>
	</g>
</g>
</svg>
